<svg width="140" height="54" viewBox="0 0 140 54" fill="none" xmlns="http://www.w3.org/2000/svg">
<path d="M19.548 40H24.876L15.84 14.836H9.972L0.936 40H6.228L7.884 35.212H17.892L19.548 40ZM16.524 31.18H9.252L12.888 20.668L16.524 31.18ZM61.22 23.872C63.812 23.872 65.9 25.528 65.972 28.156H56.504C56.9 25.42 58.808 23.872 61.22 23.872ZM70.688 33.736H65.252C64.604 35.068 63.416 36.148 61.256 36.148C58.736 36.148 56.72 34.492 56.468 31.54H71.048C71.156 30.892 71.192 30.244 71.192 29.596C71.192 23.656 67.124 19.732 61.364 19.732C55.46 19.732 51.356 23.728 51.356 30.028C51.356 36.292 55.568 40.324 61.364 40.324C66.296 40.324 69.608 37.408 70.688 33.736ZM88.8387 40H93.8787V28.3C93.8787 22.792 90.5667 19.768 85.9227 19.768C83.3667 19.768 81.2067 20.848 79.9107 22.54V20.056H74.8707V40H79.9107V28.984C79.9107 25.78 81.6747 24.052 84.4107 24.052C87.0747 24.052 88.8387 25.78 88.8387 28.984V40ZM97.3755 30.028C97.3755 36.292 101.479 40.324 107.24 40.324C112.208 40.324 115.556 37.516 116.636 33.268H111.2C110.588 35.068 109.292 36.004 107.204 36.004C104.396 36.004 102.524 33.916 102.524 30.028C102.524 26.14 104.396 24.016 107.204 24.016C109.292 24.016 110.624 25.096 111.2 26.788H116.636C115.556 22.324 112.208 19.732 107.24 19.732C101.479 19.732 97.3755 23.764 97.3755 30.028ZM128.824 33.988L123.676 20.056H118.024L126.016 39.496L121.696 49.432H127.06L139.408 20.056H134.044L128.824 33.988Z" fill="#545EE1"/>
<path d="M26.9575 29.956C26.9575 36.184 30.9895 40.324 36.0655 40.324C39.1975 40.324 41.4655 38.776 42.6535 37.048V40.144C42.6535 43.852 40.4935 45.436 37.7215 45.436C35.2015 45.436 33.3295 44.248 32.8255 42.448H27.8215C28.3255 47.02 32.2495 49.828 37.8655 49.828C44.4175 49.828 47.7295 45.544 47.7295 40.144V20.056H42.6535V22.9C41.4655 21.172 39.1975 19.732 36.0655 19.732C30.9895 19.732 26.9575 23.728 26.9575 29.956ZM42.6535 30.028C42.6535 33.808 40.1335 35.896 37.3615 35.896C34.6615 35.896 32.1055 33.736 32.1055 29.956C32.1055 26.176 34.6615 24.16 37.3615 24.16C40.1335 24.16 42.6535 26.248 42.6535 30.028Z" fill="#111764"/>
</svg>
